<svg xmlns="http://www.w3.org/2000/svg" width="123.753" height="25.988" viewBox="0 0 123.753 25.988">
    <defs>
        <style>
            .prefix__cls-1{fill:#3d3d3d}
        </style>
    </defs>
    <g id="prefix__Group_823" data-name="Group 823" transform="translate(-1211.285 -568.953)">
        <path id="prefix__Path_1793" d="M1224.342 568.953v4.455h-2.867c-8.436 0-10.189 6.311-10.189 10.849a11.713 11.713 0 0 0 2.825 8.126 8.227 8.227 0 0 0 6.085 2.5 8.768 8.768 0 0 0 4.124-.907l.021.453h5.569v-25.476zm-7.735 15.16c0-2.166.618-5.8 4.641-6.084.557-.042 2.021-.145 3.094-.186V589a6.232 6.232 0 0 1-3.177.907 4.3 4.3 0 0 1-3.094-1.052c-.969-.928-1.464-2.537-1.464-4.744" class="prefix__cls-1" data-name="Path 1793"/>
        <path id="prefix__Path_1794" d="M1247.134 590.418c-2.991-.062-4.6-1.65-5.115-4.5h13.51v-.218c.021-1.9 0-3.506-.061-4.207a8.4 8.4 0 0 0-9.137-8.188 9.434 9.434 0 0 0-7.672 3.444 12.6 12.6 0 0 0-2.5 7.9c0 5.157 2.908 10.684 11.076 10.684a19.174 19.174 0 0 0 7.941-1.836v-5.157a16.069 16.069 0 0 1-8.044 2.083m-.8-12.334a3.532 3.532 0 0 1 3.651 3.32h-7.858a4.16 4.16 0 0 1 4.207-3.32" class="prefix__cls-1" data-name="Path 1794" transform="translate(-2.683 -.469)"/>
        <path id="prefix__Path_1795" d="M1275.281 582.467v12.458h5.589v-13.282c0-5.548-2.558-8.25-7.837-8.25a14.332 14.332 0 0 0-4.579.97l-.021-.454h-5.569v21.038h5.589v-15.759a6.5 6.5 0 0 1 4.6-.723c1.484.33 2.228 1.279 2.228 4" class="prefix__cls-1" data-name="Path 1795" transform="translate(-5.563 -.479)"/>
        <path id="prefix__Path_1796" d="M1335.386 586.384v-12.437h-5.569v13.283c0 5.548 2.578 8.25 7.838 8.25a14.367 14.367 0 0 0 4.579-.969l.02.474h5.569v-21.038h-5.589V589.7a6.508 6.508 0 0 1-4.6.722c-1.506-.351-2.248-1.3-2.248-4.042" class="prefix__cls-1" data-name="Path 1796" transform="translate(-12.785 -.539)"/>
        <path id="prefix__Path_1797" d="M1288.341 568.953v18.254c0 2.516.434 4.269 1.361 5.528 1.093 1.464 2.888 2.186 5.466 2.186a18.4 18.4 0 0 0 5.239-.825v-5.033a22.287 22.287 0 0 1-4.207.66 2.321 2.321 0 0 1-1.733-.516 3.172 3.172 0 0 1-.516-2.248v-8.889a63.724 63.724 0 0 1 6.476.33v-4.95h-6.476v-4.455h-5.611z" class="prefix__cls-1" data-name="Path 1797" transform="translate(-8.311)"/>
        <path id="prefix__Path_1798" d="M1322.53 584.715c-1.134-1.546-2.846-2.351-6-2.928a14.343 14.343 0 0 1-3.754-1.011 1.1 1.1 0 0 1-.66-.949 1.121 1.121 0 0 1 .619-.907 7.286 7.286 0 0 1 4.537-.247 29.56 29.56 0 0 1 5.3 1.546v-5.074a15.57 15.57 0 0 0-7.488-1.753 10.372 10.372 0 0 0-6.022 1.815 6.5 6.5 0 0 0-2.619 5.033c-.145 3.486 2.041 5.569 7.074 6.558a24.233 24.233 0 0 1 3.239.784c.66.268 1.031.7 1.031 1.176a1.29 1.29 0 0 1-.846 1.134 8.184 8.184 0 0 1-3.465.227 24.574 24.574 0 0 1-6.662-1.753v5.218a16.275 16.275 0 0 0 7.59 1.815c3.671-.062 8.208-1.155 9.034-5.981a5.977 5.977 0 0 0-.908-4.7" class="prefix__cls-1" data-name="Path 1798" transform="translate(-10.263 -.479)"/>
    </g>
</svg>
