<svg xmlns="http://www.w3.org/2000/svg" id="prefix__Dyson_logo" width="113.505" height="42.712" viewBox="0 0 113.505 42.712">
    <defs>
        <style>
            .prefix__cls-1{fill:#231f20}
        </style>
    </defs>
    <path id="prefix__Path_1849" d="M16.053 21.432a5.165 5.165 0 1 1-5.165-5.165h5.165zM21.791.2h-5.738v10.444h-5.165a10.788 10.788 0 1 0 10.788 10.788V10.644z" class="prefix__cls-1" data-name="Path 1849" transform="translate(-.1 -.2)"/>
    <path id="prefix__Path_1850" d="M70.073 25.253a5.165 5.165 0 1 0-5.165-5.165 5.294 5.294 0 0 0 5.165 5.165M59.4 20.088a10.788 10.788 0 1 1 10.788 10.789A10.776 10.776 0 0 1 59.4 20.088" class="prefix__cls-1" data-name="Path 1850" transform="translate(8.657 1.144)"/>
    <path id="prefix__Path_1851" d="M95.923 20.088a5.05 5.05 0 1 0-10.1 0v10.33H80.2v-10.33a10.788 10.788 0 1 1 21.576 0v10.33h-5.623c-.23 0-.23-8.952-.23-10.329" class="prefix__cls-1" data-name="Path 1851" transform="translate(11.729 1.144)"/>
    <path id="prefix__Path_1852" d="M48.712 16.393c-.8-.574-.574-1.492.8-1.836a12.189 12.189 0 0 1 7.23 1.033l2.64-3.673a13.494 13.494 0 0 0-7.345-2.41s-6.2-.8-8.722 3.9a5.468 5.468 0 0 0 2.185 7.118c2.64 1.607 7.23 2.3 8.722 2.984 1.148.689.8 1.951-.918 2.3-2.984.689-6.886-1.033-8.149-1.951L42.4 27.64a16.492 16.492 0 0 0 7.8 3.214s5.853 1.033 9.067-2.984c.574-.689 3.213-5.624-2.066-8.493-2.754-1.492-7.116-2.181-8.493-2.984" class="prefix__cls-1" data-name="Path 1852" transform="translate(6.147 1.167)"/>
    <path id="prefix__Path_1853" d="M25.387 34.49c.23.115 2.869 1.951 5.394 1.951 6.2.115 6.542-6.312 6.542-7.8a7.88 7.88 0 0 1-5.05 2.066A10.485 10.485 0 0 1 21.6 20.144V9.7h5.624v10.444a5.05 5.05 0 1 0 10.1 0V9.7h5.624v10.444c0 9.3.459 18.822-8.608 21a14.134 14.134 0 0 1-11.94-2.866z" class="prefix__cls-1" data-name="Path 1853" transform="translate(3.075 1.203)"/>
</svg>
