<svg xmlns="http://www.w3.org/2000/svg" width="116.554" height="33.051" viewBox="0 0 116.554 33.051">
    <defs>
        <style>
            .prefix__cls-1{fill:#3d3d3d}
        </style>
    </defs>
    <g id="prefix__HubSpot_Logo" transform="translate(0 .002)">
        <path id="prefix__Path_1746" d="M12.623 4.974v9.319H4.062V4.974H0v22.245h4.063V18.2h8.559v9.016h4.064V4.974zm17.068 15.055a3.362 3.362 0 0 1-6.724 0V10.5h-3.854v9.529a7.209 7.209 0 1 0 14.418 0V10.5h-3.84zm28.557-8.547a2.388 2.388 0 0 1 2.707-2.573 5.779 5.779 0 0 1 3.634 1.922l2.524-2.975A7.949 7.949 0 0 0 61.2 4.974c-4.177 0-7.2 2.449-7.2 6.508 0 7.532 9.206 5.142 9.206 9.357a2.656 2.656 0 0 1-2.706 2.448c-2.279 0-3.018-1.114-4.065-2.293l-2.8 2.913a8.271 8.271 0 0 0 6.649 3.316c3.973 0 7.168-2.478 7.168-6.353 0-8.361-9.207-5.763-9.207-9.388M115.2 23.666c-2.277 0-2.925-.985-2.925-2.494v-6.68h3.541v-3.385h-3.541V6.642L108.366 8.4V22c0 3.48 2.4 5.234 5.694 5.234a8.043 8.043 0 0 0 1.542-.123l.953-3.51c-.43.03-.924.059-1.356.059M44.361 10.611a5.921 5.921 0 0 0-4.53 1.818V5.107h-3.86v13.572c0 5.08 3.673 8.561 7.8 8.561a8.458 8.458 0 0 0 8.606-8.313 8.168 8.168 0 0 0-8.017-8.313m-.024 12.741a4.38 4.38 0 1 1 4.38-4.38 4.38 4.38 0 0 1-4.38 4.38m41.94-4.63a8.446 8.446 0 0 0-8.606-8.313c-4.127 0-7.8 3.48-7.8 8.561v13.58h3.859v-7.332a5.924 5.924 0 0 0 4.528 1.818 8.169 8.169 0 0 0 8.018-8.314m-3.654-.048a4.38 4.38 0 1 1-4.38-4.38 4.38 4.38 0 0 1 4.38 4.38" class="prefix__cls-1" data-name="Path 1746" transform="translate(0 .495)"/>
        <path id="prefix__Path_1747" d="M91.969 10.721V6.843a2.986 2.986 0 0 0 1.722-2.692v-.089A2.986 2.986 0 0 0 90.7 1.076h-.089a2.986 2.986 0 0 0-2.986 2.986v.089a2.986 2.986 0 0 0 1.722 2.692v3.878a8.457 8.457 0 0 0-4.021 1.77L74.694 4.207a3.331 3.331 0 0 0 .12-.838 3.365 3.365 0 1 0-3.369 3.358 3.328 3.328 0 0 0 1.655-.45l10.473 8.15a8.483 8.483 0 0 0 .13 9.555l-3.185 3.187a2.816 2.816 0 1 0 1.84 1.84l3.151-3.152a8.5 8.5 0 1 0 6.459-15.134m-1.305 12.753a4.361 4.361 0 1 1 4.207-4.361 4.36 4.36 0 0 1-4.207 4.361" class="prefix__cls-1" data-name="Path 1747" transform="translate(6.779)"/>
    </g>
</svg>
