<svg xmlns="http://www.w3.org/2000/svg" width="56.197" height="56.197" viewBox="0 0 56.197 56.197">
    <defs>
        <style>
            .prefix__cls-2{fill:#363a3a}
        </style>
    </defs>
    <g id="prefix__Icon_linkedin" data-name="Icon linkedin" transform="translate(1 1)">
        <path id="prefix__icon_linkedin-2" d="M-13448.9 54.2a26.925 26.925 0 0 1-10.548-2.13 27.019 27.019 0 0 1-8.615-5.808 27.031 27.031 0 0 1-5.808-8.614A26.933 26.933 0 0 1-13476 27.1a26.93 26.93 0 0 1 2.13-10.547 27.026 27.026 0 0 1 5.808-8.613 27.019 27.019 0 0 1 8.615-5.807A26.93 26.93 0 0 1-13448.9 0a26.922 26.922 0 0 1 10.547 2.129 27.012 27.012 0 0 1 8.614 5.807 27.013 27.013 0 0 1 5.807 8.613 26.934 26.934 0 0 1 2.132 10.551 26.938 26.938 0 0 1-2.129 10.548 27.018 27.018 0 0 1-5.807 8.614 27.012 27.012 0 0 1-8.614 5.808 26.916 26.916 0 0 1-10.55 2.13z" data-name="icon linkedin" transform="translate(13476.002)" style="fill:none;stroke:#3d3d3d;stroke-miterlimit:10;stroke-width:2px"/>
        <g id="prefix__XMLID_801_" transform="translate(11.898 8.734)">
            <path id="prefix__XMLID_802_" d="M12.156 99.73H5.465a.538.538 0 0 0-.538.538v21.5a.538.538 0 0 0 .538.538h6.691a.538.538 0 0 0 .538-.538v-21.5a.538.538 0 0 0-.538-.538z" class="prefix__cls-2" transform="translate(-4.397 -88.703)"/>
            <path id="prefix__XMLID_803_" d="M4.415.341a4.412 4.412 0 1 0 4.412 4.411A4.418 4.418 0 0 0 4.415.341z" class="prefix__cls-2"/>
            <path id="prefix__XMLID_804_" d="M119.538 94.761a7.859 7.859 0 0 0-5.879 2.468v-1.4a.538.538 0 0 0-.538-.538h-6.408a.538.538 0 0 0-.538.538v21.5a.538.538 0 0 0 .538.538h6.677a.538.538 0 0 0 .538-.538v-10.635c0-3.584.973-4.98 3.472-4.98 2.721 0 2.937 2.238 2.937 5.165v10.451a.538.538 0 0 0 .538.538h6.679a.538.538 0 0 0 .538-.538v-11.792c-.001-5.329-1.017-10.777-8.554-10.777z" class="prefix__cls-2" transform="translate(-94.76 -84.268)"/>
        </g>
    </g>
</svg>
