<svg xmlns="http://www.w3.org/2000/svg" width="55.956" height="55.956" viewBox="0 0 55.956 55.956">
    <g id="prefix__icon_facebook" data-name="icon facebook" transform="translate(1 1)">
        <g id="prefix__Group_135" data-name="Group 135">
            <g id="prefix__Social_Media_Small_Dark_Facebook" data-name="Social Media / Small / Dark / Facebook">
                <path id="prefix__Exclusion_3" d="M-15007.911-128.182a26.978 26.978 0 0 1 26.979 26.978 26.978 26.978 0 0 1-26.979 26.978 26.978 26.978 0 0 1-26.978-26.978 26.978 26.978 0 0 1 26.978-26.978z" data-name="Exclusion 3" transform="translate(15034.889 128.182)" style="fill:none;stroke:#3d3d3d;stroke-miterlimit:10;stroke-width:2px"/>
            </g>
            <path id="prefix__Shape" d="M15.576 17.568h-4.814V35.2H3.469V17.568H0v-6.2h3.469V7.359C3.469 4.491 4.831 0 10.827 0l5.4.023v6.016H12.31a1.485 1.485 0 0 0-1.547 1.689v3.648h5.451z" transform="translate(19.184 11.466)" style="fill:#363a3a"/>
        </g>
    </g>
</svg>
