<svg xmlns="http://www.w3.org/2000/svg" width="55.956" height="55.956" viewBox="0 0 55.956 55.956">
    <g id="prefix__icon_twitter" data-name="icon twitter" transform="translate(1 1)">
        <g id="prefix__Group_134" data-name="Group 134">
            <g id="prefix__Social_Media_Small_Dark_Twitter" data-name="Social Media / Small / Dark / Twitter">
                <path id="prefix__Exclusion_2" d="M-14926.4-128.182a26.978 26.978 0 0 1 26.979 26.978 26.978 26.978 0 0 1-26.979 26.978 26.978 26.978 0 0 1-26.978-26.978 26.978 26.978 0 0 1 26.978-26.978z" data-name="Exclusion 2" transform="translate(14953.375 128.182)" style="fill:none;stroke:#3d3d3d;stroke-miterlimit:10;stroke-width:2px"/>
            </g>
            <path id="prefix__Shape" d="M31.431 3.024a12.866 12.866 0 0 1-3.7 1.014A6.466 6.466 0 0 0 30.563.471a12.909 12.909 0 0 1-4.095 1.564 6.454 6.454 0 0 0-10.989 5.883A18.305 18.305 0 0 1 2.188 1.18a6.456 6.456 0 0 0 2 8.61 6.4 6.4 0 0 1-2.921-.807v.082a6.452 6.452 0 0 0 5.173 6.322 6.474 6.474 0 0 1-2.912.112 6.455 6.455 0 0 0 6.024 4.478 12.938 12.938 0 0 1-8.009 2.76A12.985 12.985 0 0 1 0 22.646a18.24 18.24 0 0 0 9.884 2.9c11.861 0 18.347-9.826 18.347-18.348 0-.279-.006-.558-.019-.834a13.077 13.077 0 0 0 3.218-3.337z" transform="translate(13.586 15.303)" style="fill:#363a3a"/>
        </g>
    </g>
</svg>
