<svg xmlns="http://www.w3.org/2000/svg" id="prefix__Group_840" width="115.302" height="31.113" data-name="Group 840" viewBox="0 0 115.302 31.113">
    <g id="prefix__g15904">
        <g id="prefix__g15910">
            <path id="prefix__path15912" d="M1309.881 582.393a2 2 0 0 0-.446 1.4v18.467h-.1s-10.105-18.018-10.594-18.85a3.5 3.5 0 0 0-1.24-1.3 3.792 3.792 0 0 0-2.053-.467h-3.335a1.951 1.951 0 0 0-1.606.672 1.992 1.992 0 0 0-.45 1.4v26.173a2 2 0 0 0 .45 1.4 1.951 1.951 0 0 0 1.606.67H1294a1.953 1.953 0 0 0 1.605-.67 2 2 0 0 0 .448-1.4v-18.913h.1s10.493 18.586 10.92 19.277a3.393 3.393 0 0 0 3.01 1.709h3.233a1.958 1.958 0 0 0 1.607-.67 2.011 2.011 0 0 0 .447-1.4v-23.614h42.481a1.5 1.5 0 0 0 1-.326 1.329 1.329 0 0 0 .387-1.058V583.1a1.33 1.33 0 0 0-.387-1.058 1.5 1.5 0 0 0-1-.326h-46.364a1.958 1.958 0 0 0-1.607.672m18.546 7c-7.057 0-11.023 5.511-11.023 11.327 0 6.2 4.251 11.652 11.063 11.652a11.437 11.437 0 0 0 8.643-3.538 6 6 0 0 0 1.506-3.172 1.031 1.031 0 0 0-.224-.711.971.971 0 0 0-.834-.327h-3.275a1.574 1.574 0 0 0-1.423.732 4.865 4.865 0 0 1-4.372 2.136 5.077 5.077 0 0 1-5.165-4.86h14.153a1.855 1.855 0 0 0 1.382-.448 2.1 2.1 0 0 0 .51-1.668 11.926 11.926 0 0 0-2.582-7.545 10.4 10.4 0 0 0-8.359-3.578m21.818 0c-5.571 0-9.23 2.644-9.23 6.873a5.223 5.223 0 0 0 1.444 3.68 9.156 9.156 0 0 0 4.677 2.441l4.656 1.178c1.281.327 2.419.713 2.419 1.831 0 1.729-1.83 2.319-3.78 2.319a6.327 6.327 0 0 1-2.768-.589 3.456 3.456 0 0 1-1.4-1.242c-.3-.467-.405-.813-.874-1.077a2.18 2.18 0 0 0-1.1-.184h-2.522a1.149 1.149 0 0 0-1 .388 1.381 1.381 0 0 0-.245.873 4.775 4.775 0 0 0 .958 2.746c1.544 2.074 4.777 3.742 8.9 3.742 4.069 0 9.7-1.688 9.7-7.139a5.718 5.718 0 0 0-1.161-3.578 7.8 7.8 0 0 0-4.635-2.684l-4.615-1.18c-1.912-.488-2.808-.834-2.808-2.014 0-1.138 1.018-2.053 3.375-2.053a4.645 4.645 0 0 1 3.459 1.161c.67.712.55 1.077 1.079 1.361a2.764 2.764 0 0 0 1.261.164h2.3a1.021 1.021 0 0 0 .834-.286 1.344 1.344 0 0 0 .265-.936 4.982 4.982 0 0 0-1.912-3.457 11.162 11.162 0 0 0-7.281-2.338m12.67.773h-1.139a1.5 1.5 0 0 0-1 .324 1.324 1.324 0 0 0-.387 1.057v1.4a1.326 1.326 0 0 0 .387 1.058 1.5 1.5 0 0 0 1 .326h1.139v10.147a7.114 7.114 0 0 0 2.033 5.532c1.221 1.2 2.808 1.952 5.573 1.952h1.728a1.5 1.5 0 0 0 1-.326 1.347 1.347 0 0 0 .427-1.058v-1.769a1.348 1.348 0 0 0-.427-1.058 1.5 1.5 0 0 0-1-.326h-.243a3.255 3.255 0 0 1-2.36-.772 3.4 3.4 0 0 1-.915-2.582v-9.74h3.7a1.5 1.5 0 0 0 1-.326 1.331 1.331 0 0 0 .386-1.058v-1.4a1.329 1.329 0 0 0-.386-1.057 1.5 1.5 0 0 0-1-.324h-3.681v-6.63a1.872 1.872 0 0 0-.407-1.22 1.659 1.659 0 0 0-1.361-.591h-2.3a1.661 1.661 0 0 0-1.363.591 1.875 1.875 0 0 0-.406 1.22zm12.446 19.988a1.873 1.873 0 0 0 .406 1.221 1.657 1.657 0 0 0 1.361.589h2.42a1.659 1.659 0 0 0 1.362-.589 1.873 1.873 0 0 0 .407-1.221v-26.616a1.873 1.873 0 0 0-.407-1.221 1.66 1.66 0 0 0-1.362-.591h-2.42a1.658 1.658 0 0 0-1.361.591 1.873 1.873 0 0 0-.406 1.221zm-52-11.855a5.142 5.142 0 0 1 10.169 0zm79.98-12.019a1.5 1.5 0 0 0 1-.324 1.329 1.329 0 0 0 .388-1.058V583a1.84 1.84 0 0 0-.388-1.362 1.346 1.346 0 0 0-1-.386 11.423 11.423 0 0 0-1.2.1l-16.229 1.607a1.153 1.153 0 0 0-.853.365 1.17 1.17 0 0 0-.266.834v1.056a1 1 0 0 0 .224.754 1.024 1.024 0 0 0 .813.3zm-8.968 3.113c-7.056 0-11.023 5.511-11.023 11.327 0 6.2 4.251 11.652 11.063 11.652a11.437 11.437 0 0 0 8.643-3.538 6.006 6.006 0 0 0 1.505-3.172 1.031 1.031 0 0 0-.224-.711.971.971 0 0 0-.834-.327h-3.273a1.574 1.574 0 0 0-1.424.732 4.865 4.865 0 0 1-4.372 2.136 5.076 5.076 0 0 1-5.165-4.86h14.195a1.856 1.856 0 0 0 1.382-.448 2.094 2.094 0 0 0 .508-1.668 11.919 11.919 0 0 0-2.582-7.545 10.485 10.485 0 0 0-8.4-3.578m-5.064 8.906a5.142 5.142 0 0 1 10.169 0z" transform="translate(-1290.053 -581.254)" style="fill:#3d3d3d"/>
        </g>
    </g>
</svg>
