<svg xmlns="http://www.w3.org/2000/svg" width="143.87" height="22.058" viewBox="0 0 143.87 22.058">
    <defs>
        <style>
            .prefix__cls-1{fill:#3d3d3d}
        </style>
    </defs>
    <g id="prefix__Samsung_wordmark" transform="translate(-2.013 -1.852)">
        <path id="prefix__S" d="M11.563 17.429a2.692 2.692 0 0 1 .039 1.521 1.78 1.78 0 0 1-2 1.386 1.84 1.84 0 0 1-2.066-1.864v-1.994H2.013v1.584c0 4.586 3.606 5.972 7.474 5.972 3.717 0 6.778-1.265 7.266-4.7a10.047 10.047 0 0 0-.019-3.37c-.869-4.306-8.671-5.591-9.255-8a2.636 2.636 0 0 1-.019-1.081A1.7 1.7 0 0 1 9.337 5.5a1.749 1.749 0 0 1 1.907 1.864v1.278h5.132V7.194c0-4.48-4.022-5.18-6.928-5.18-3.66 0-6.648 1.212-7.193 4.567A7.172 7.172 0 0 0 2.3 9.352c.893 4.2 8.2 5.417 9.26 8.077" class="prefix__cls-1" transform="translate(0 -.122)"/>
        <path id="prefix__Path_1872" d="M81.733 4.736L77.919 25.3h5.557L86.29 6.638h.116L89.143 25.3h5.528l-3.79-20.569zm31.067 0l-2.535 15.719h-.121l-2.53-15.719h-8.385L98.775 25.3h5.146l.126-18.486h.116L107.6 25.3h5.219l3.437-18.481h.111l.13 18.481h5.142l-.454-20.567z" class="prefix__cls-1" data-name="Path 1872" transform="translate(-57.704 -2.189)"/>
        <path id="prefix__Path_1873" d="M11.563 17.429a2.692 2.692 0 0 1 .039 1.521 1.78 1.78 0 0 1-2 1.386 1.84 1.84 0 0 1-2.066-1.864v-1.994H2.013v1.584c0 4.586 3.606 5.972 7.474 5.972 3.717 0 6.778-1.265 7.266-4.7a10.047 10.047 0 0 0-.019-3.37c-.869-4.306-8.671-5.591-9.255-8a2.636 2.636 0 0 1-.019-1.081A1.7 1.7 0 0 1 9.337 5.5a1.749 1.749 0 0 1 1.907 1.864v1.278h5.132V7.194c0-4.48-4.022-5.18-6.928-5.18-3.66 0-6.648 1.212-7.193 4.567A7.172 7.172 0 0 0 2.3 9.352c.893 4.2 8.2 5.417 9.26 8.077" class="prefix__cls-1" data-name="Path 1873" transform="translate(66.851 -.161)"/>
        <path id="prefix__Path_1874" d="M369.7 20.458a1.849 1.849 0 0 0 1.97-1.487 4.5 4.5 0 0 0 .048-.787V2.976h5.2v14.74q0 .677-.048 1.352c-.362 3.838-3.394 5.084-7.174 5.084s-6.817-1.246-7.179-5.084c-.014-.2-.053-.975-.048-1.352V2.971h5.2v15.208a4.1 4.1 0 0 0 .048.792 1.847 1.847 0 0 0 1.975 1.487m25.15-17.482l.28 16.14h-.111l-4.731-16.14h-7.628v20.345h5.055l-.28-16.7h.111l5.074 16.7h7.324V2.976zm17.742 17.269a1.919 1.919 0 0 0 2.1-1.5 4.428 4.428 0 0 0 .048-.772v-2.99h-2.11V11.99h7.285v5.51a12.737 12.737 0 0 1-.072 1.352c-.338 3.746-3.587 5.084-7.232 5.084s-6.889-1.337-7.232-5.084c-.058-.686-.072-.966-.072-1.352V8.852c0-.367.048-1.014.087-1.352.459-3.848 3.573-5.084 7.218-5.084s6.841 1.226 7.218 5.079a11.987 11.987 0 0 1 .048 1.352v.69h-5.185V8.383a4.875 4.875 0 0 0-.063-.782 1.878 1.878 0 0 0-2.057-1.5 1.9 1.9 0 0 0-2.047 1.5 4.649 4.649 0 0 0-.087.97v9.4a5.077 5.077 0 0 0 .048.782 1.93 1.93 0 0 0 2.1 1.492" class="prefix__cls-1" data-name="Path 1874" transform="translate(-274.025 -.429)"/>
    </g>
</svg>
