<svg xmlns="http://www.w3.org/2000/svg" width="73.507" height="76.722" viewBox="0 0 73.507 76.722">
    <defs>
        <style>
            .prefix__cls-1{fill:#3d3d3d}
        </style>
    </defs>
    <g id="prefix__Warner_Bros_logo">
        <path id="prefix__path5" d="M36.74 0c-1.8.383-17.6 2.452-19.565 3.435-.453.908-1.4 3.74-1.7 4.188-1.27.273-6.416 1.252-6.74 1.44A20.244 20.244 0 0 1 7.1 12.2c-1.09.272-6.171 1.214-6.805 1.669-.364 2.181-1.747 23.972 7.327 38.217S32.566 75.815 36.74 76.723h.033c4.174-.908 20.012-10.39 29.086-24.636s7.725-36.037 7.361-38.214c-.635-.454-5.717-1.4-6.805-1.669a20.335 20.335 0 0 1-1.636-3.141c-.322-.187-5.468-1.167-6.74-1.44-.3-.448-1.247-3.28-1.7-4.188C54.377 2.456 38.561.391 36.74 0zm0 5.562C38.3 5.9 51.815 7.7 53.491 8.54c.386.776 1.184 3.183 1.44 3.566 1.086.232 5.515 1.05 5.791 1.211a17.643 17.643 0 0 0 1.378 2.715c.931.232 5.281 1.019 5.824 1.407.311 1.861 1.474 20.476-6.282 32.652s-21.3 20.3-24.865 21.07h-.037c-3.568-.775-17.109-8.894-24.865-21.07S5.283 19.3 5.593 17.439c.543-.388 4.893-1.174 5.824-1.407a17.644 17.644 0 0 0 1.374-2.716c.276-.16 4.673-.978 5.758-1.211.257-.383 1.085-2.79 1.472-3.566C21.7 7.7 35.205 5.889 36.74 5.562z" class="prefix__cls-1"/>
        <path id="prefix__path9" d="M186.252 55.537a.571.571 0 0 0-.589.556c-.1 17.428-.055 35.916-.2 53.82.115.566 1.018-.3 1.538-.589 6.61-3.634 27.229-23.6 15.377-30.754 9.075-5.934 7.458-11.6 3.435-14.69-8.317-6.4-17.806-7.986-18.911-8.278a1.82 1.82 0 0 0-.654-.065zm5.529 7.165a38.189 38.189 0 0 1 8.376 3.893c3.343 2.278 2.211 4.468.262 5.791-1.058.721-7.609 5.426-8.7 5.693-.028-.908-.032-11.143.062-15.379zm4.875 19.925a2.717 2.717 0 0 1 1.93.785c.452.432 2.446 2.582-1.8 8.736a39.827 39.827 0 0 1-5.268 6.642c-.045.013-.064-.057-.1-.033.035-2-.019-11.686.1-14.4.236-.119 2.947-1.798 5.138-1.73z" class="prefix__cls-1" transform="translate(-147.025 -44.02)"/>
        <path id="prefix__path15" d="M58.928 61.663a63.362 63.362 0 0 0-5.638 3.644c-.129 4.108.973 15.192 5.03 23.843a25.451 25.451 0 0 0 1.673 3.05c1.157 2 1.222 1.84 2.568-.073.933-1.262 2.278-3.132 2.615-3.518.465 1.551 3.471 11.222 7.7 17.067 1.874 2.593 4.752 5.043 4.741 4.034-.115-9.876-.4-52.625-.088-54.367a25.338 25.338 0 0 0-6.147.923c-.067 1.563.562 30.876.175 34.209-2.866-6.981-3.843-25.4-3.277-33a22.413 22.413 0 0 0-5.874 2.37c-.7 1.4.254 16.7 1.245 21.84-.338.533-1.313 1.98-1.468 2.212-1.964-3.534-3.839-14.445-3.255-22.234z" class="prefix__cls-1" transform="translate(-42.237 -43.87)"/>
    </g>
</svg>
